# xmcd
#
# Track frame offsets: 
#        150
#        12645
#        26716
#        43490
#        61769
#        83627
#        99434
#        116920
#        134075
#        148889
#        163261
#        178224
#        195057
#
# Disc length: 2875 seconds
#
# Revision: 0
# Processed by: cddbd v1.5.2PL0 Copyright (c) Steve Scherf et al.
# Submitted via: ExactAudioCopy v0.99pb4
#
DISCID=bf0b390d
DTITLE=Keller Steff - Langsam Pressiert's
DYEAR=2013
DGENRE=Blues
TTITLE0=Ratschkini
TTITLE1=Heandl
TTITLE2=Sommerreng
TTITLE3=Magic
TTITLE4=Kurvn
TTITLE5=Da Zeckan
TTITLE6=Wanderer
TTITLE7=Danz in deim Leb'n
TTITLE8=Deife
TTITLE9=Da Koda
TTITLE10=ChichenWingBudeKING
TTITLE11=Sommerregen
TTITLE12=Meine Dog ohne Di
EXTD=
EXTT0=
EXTT1=
EXTT2=
EXTT3=
EXTT4=
EXTT5=
EXTT6=
EXTT7=
EXTT8=
EXTT9=
EXTT10=
EXTT11=
EXTT12=
PLAYORDER=
